
<svg width="80px" height="80px" viewBox="0 0 80 80" version="1.1" xmlns="http://www.w3.org/2000/svg" xmlns:xlink="http://www.w3.org/1999/xlink">
    <!-- Generator: Sketch 51.2 (57519) - http://www.bohemiancoding.com/sketch -->
    <desc>Created with Sketch.</desc>
    <defs></defs>
    <g id="Normal-User-side" stroke="none" stroke-width="1" fill="none" fill-rule="evenodd">
        <g id="1030_Browse_Problems" transform="translate(-1069.000000, -915.000000)">
            <g id="Problems" transform="translate(145.000000, 251.000000)">
                <g id="problem_thumbnail" transform="translate(780.000000, 588.000000)">
                    <g id="Group-15" transform="translate(15.000000, 15.000000)">
                        <g id="Women" transform="translate(129.000000, 61.000000)">
                            <rect id="Rectangle" x="0" y="0" width="80" height="80"></rect>
                            <path d="M40.086442,18.9574677 L47.8792041,18.9574677 C50.8359797,18.9574677 53.3952064,20.9862011 54.032988,23.8356552 L59.2690011,47.2288948 C59.2773702,47.3131221 59.2835122,47.3975557 59.2874206,47.4821074 C59.4099636,50.133092 57.3600897,52.3814727 54.7088992,52.5040061 C54.5649801,52.4309356 54.4926548,52.3518128 54.4251682,52.2700949 L56.5650346,60.9219405 C56.5844185,61.0003128 56.5942179,61.0807479 56.5942179,61.1614815 C56.5942179,61.7125299 56.1474702,62.1592429 55.5963789,62.1592429 L48.5418141,62.1592429 L48.5418141,76.271523 C48.5418141,78.330704 46.8723885,80 44.8130475,80 C42.7537066,80 41.0842809,78.330704 41.0842809,76.271523 L41.0842809,62.1592429 L40.086442,62.1592429 L39.913558,62.1592429 L38.9157191,62.1592429 L38.9157191,76.271523 C38.9157191,78.330704 37.2462934,80 35.1869525,80 C33.1276115,80 31.4581859,78.330704 31.4581859,76.271523 L31.4581859,62.1592429 L24.4036211,62.1592429 C23.8525298,62.1592429 23.4057821,61.7125299 23.4057821,61.1614815 C23.4057821,61.0807479 23.4155815,61.0003128 23.4349654,60.9219405 L25.5748318,52.2700949 C25.5073452,52.3518128 25.4350199,52.4309356 25.3578561,52.5070914 C22.6399103,52.3814727 20.5900364,50.133092 20.7125794,47.4821074 C20.7164878,47.3975557 20.7226298,47.3131221 20.7309989,47.2288948 L25.967012,23.8356552 C26.6047936,20.9862011 29.1640203,18.9574677 32.1207959,18.9574677 L39.913558,18.9574677 L40.086442,18.9574677 Z M48.3164123,8.29308223 C48.3164123,12.8162137 44.6474006,16.4935964 40.086442,16.5844441 C40.0575938,16.5861645 40.0287796,16.586021 40,16.5857347 C39.9712204,16.586021 39.9424062,16.5861645 39.913558,16.5861645 C35.3525994,16.4935964 31.6835877,12.8162137 31.6835877,8.29308223 C31.6835877,3.76995074 35.3525994,0.0925680241 39.913558,0.00172036424 C39.9424062,0 39.9712204,0.000143474551 40,0.000429740088 C40.0287796,0.000143474551 40.0575938,0 40.086442,0 C44.6474006,0.0925680241 48.3164123,3.76995074 48.3164123,8.29308223 Z M17.8560654,59.6128486 L17.8560654,73.0827872 C17.8560654,76.8041532 14.3819685,79.8209165 10.6113443,79.8209165 C6.84072002,79.8209165 3.15107037,76.8041532 3.15107037,73.0827872 L3.15107037,67.3586759 C1.25606248,66.1612905 0,64.0653131 0,61.6797991 L0,59.0882109 C0,55.0805859 3.29182527,51.831764 7.35249753,51.831764 L16.3078862,51.831764 C16.9891434,54.0004676 18.6438241,55.810626 20.8831177,56.6253407 L17.8560654,59.6128486 Z M16.5060221,46.4760102 C15.69217,48.9814915 13.3124713,50.7951287 10.5035679,50.7951287 C7.02299168,50.7951287 4.20142716,48.0104241 4.20142716,44.575317 C4.20142716,41.1402099 7.02299168,38.3555053 10.5035679,38.3555053 C13.9841441,38.3555053 16.8057086,41.1402099 16.8057086,44.575317 C16.8057086,44.9123604 16.7785454,45.2431423 16.7262617,45.5656468 L16.5060221,46.4760102 Z M63.6921138,51.831764 L72.6475025,51.831764 C76.7081747,51.831764 80,55.0805859 80,59.0882109 L80,61.6797991 C80,64.0653131 78.7439375,66.1612905 76.8489296,67.3586759 L76.8489296,73.0827872 C76.8489296,76.8041532 73.15928,79.8209165 69.3886557,79.8209165 C65.6180315,79.8209165 62.1439346,76.8041532 62.1439346,73.0827872 L62.1439346,59.6128486 L59.1168823,56.6253407 C61.3561759,55.810626 63.0108566,54.0004676 63.6921138,51.831764 Z M63.1942914,44.575317 C63.1942914,41.1402099 66.0158559,38.3555053 69.4964321,38.3555053 C72.9770083,38.3555053 75.7985728,41.1402099 75.7985728,44.575317 C75.7985728,48.0104241 72.9770083,50.7951287 69.4964321,50.7951287 C66.6875287,50.7951287 64.30783,48.9814915 63.4939779,46.4760102 L63.2737383,45.5656468 C63.2214546,45.2431423 63.1942914,44.9123604 63.1942914,44.575317 Z" id="Combined-Shape" fill="#FFFFFF"></path>
                        </g>
                    </g>
                </g>
            </g>
        </g>
    </g>
</svg>