<?xml version="1.0" encoding="utf-8"?>
<!-- Generator: Adobe Illustrator 17.0.0, SVG Export Plug-In . SVG Version: 6.00 Build 0)  -->
<!DOCTYPE svg PUBLIC "-//W3C//DTD SVG 1.1//EN" "http://www.w3.org/Graphics/SVG/1.1/DTD/svg11.dtd">
<svg version="1.1" id="Layer_1" xmlns="http://www.w3.org/2000/svg" xmlns:xlink="http://www.w3.org/1999/xlink" x="0px" y="0px"
	 width="128.007px" height="127.5px" viewBox="0 -85.5 128.007 127.5" enable-background="new 0 -85.5 128.007 127.5"
	 xml:space="preserve">
<path fill="#FFFFFF" d="M113.983-35.798c-1.068-7.478-3.846-14.351-7.834-20.369c-1.175-1.816-2.528-3.525-3.953-5.164
	c-1.531-1.709-3.169-3.419-4.879-4.843c-3.241-2.884-6.909-5.342-10.79-7.3c-0.534-0.285-1.068-0.534-1.638-0.712
	c-6.374-2.884-13.39-4.523-20.868-4.523c-7.478,0-14.6,1.638-20.903,4.523c-0.534,0.249-1.068,0.534-1.638,0.712
	c-3.953,1.959-7.549,4.416-10.79,7.3c-1.709,1.531-3.347,3.134-4.879,4.843c-1.424,1.638-2.671,3.347-3.953,5.164
	c-3.953,6.018-6.659,12.891-7.834,20.369c-0.356,2.422-0.534,4.95-0.534,7.478c0,2.528,0.178,4.95,0.463,7.3
	c0.534,3.953,1.531,7.727,2.778,11.36c1.638,4.416,3.703,8.475,6.125,12.143c1.709,2.635,3.525,5.057,5.484,7.3
	c1.282,1.46,2.635,2.884,3.988,4.238h0.071c0.356,0.463,0.712,0.819,1.175,1.282c0.285,0.249,0.534,0.534,0.819,0.783
	c2.6,2.457,5.306,4.629,7.906,6.588c3.241,2.35,6.303,4.416,9.188,6.125c7.229,4.344,12.535,6.41,12.535,6.41
	s5.306-2.065,12.499-6.41c2.813-1.709,5.947-3.668,9.188-6.125c2.635-1.959,5.306-4.131,7.941-6.588
	c0.249-0.249,0.534-0.534,0.783-0.783c0.392-0.463,0.819-0.819,1.175-1.282h0.107c1.353-1.353,2.6-2.706,3.953-4.238
	c1.994-2.243,3.775-4.665,5.484-7.3c2.457-3.668,4.594-7.728,6.125-12.143c1.282-3.525,2.279-7.3,2.813-11.36
	c0.356-2.35,0.427-4.772,0.427-7.3C114.517-30.849,114.339-33.377,113.983-35.798z"/>
<title>Group 14</title>
<desc>Created with Sketch.</desc>
<path fill="#192A30" d="M80.048,7.324c-1.187,2.647-2.1,5.569-2.647,8.536h-0.137c-3.56,1.506-7.486,2.465-11.548,2.556h-3.56
	c-4.062-0.228-7.988-1.141-11.548-2.556c-0.593-2.967-1.506-5.751-2.647-8.536c3.925-1.369,7.942-2.282,12.324-2.647
	C61.47,4.54,62.703,4.54,63.981,4.54c1.278,0,2.419,0,3.697,0.137C71.969,5.042,76.122,5.955,80.048,7.324z"/>
<path fill="#192A30" d="M87.899-16.594c2.419-4.017,5.432-7.714,8.855-10.864c0.593-0.548,1.278-1.141,1.871-1.598l-0.228-0.137
	v-1.141c0-1.826-0.228-3.697-0.456-5.523c-0.685-4.154-2.1-8.125-4.062-11.548c-1.506-2.556-3.241-4.975-5.295-7.075
	c-1.278-1.369-2.647-2.647-4.154-3.697c-0.137-0.091-0.365-0.228-0.456-0.32c-3.15-2.328-6.71-4.062-10.635-5.204
	c-2.647-0.73-5.295-1.187-8.171-1.278h-2.556c-2.876,0.091-5.523,0.548-8.216,1.278c-3.789,1.141-7.395,2.876-10.59,5.204
	c-0.137,0.091-0.365,0.228-0.456,0.32c-1.506,1.141-2.921,2.328-4.154,3.697c-2.1,2.1-3.834,4.519-5.34,7.075
	c-1.963,3.423-3.332,7.395-4.017,11.548c-0.365,1.826-0.456,3.697-0.456,5.523v1.141c0.685,0.593,1.232,1.05,1.826,1.643
	c3.469,3.104,6.482,6.801,8.901,10.864c2.282-1.963,4.382-4.154,6.208-6.482c1.05-1.141,1.871-2.419,2.647-3.697
	c-0.32,1.598-0.776,3.332-1.232,4.975c-0.456,1.735-1.187,3.469-1.963,5.204c-0.822,1.963-1.871,3.697-2.921,5.432
	c-1.004,1.735-2.282,3.332-3.56,4.975c0.593,0.548,1.141,1.232,1.598,1.826c1.871,2.191,3.606,4.61,4.975,7.166
	c0.228,0.228,0.365,0.593,0.456,0.822c0.228,0.456,0.456,0.913,0.685,1.369c0.502-0.137,0.959-0.137,1.415-0.228
	c2.054-0.228,4.017-0.913,5.888-1.735c3.697-1.735,6.938-4.382,9.357-7.76c0.046-0.046,0.137-0.183,0.228-0.32
	c-2.237-3.515-5.249-6.345-8.901-8.444c0.137-1.141,0.228-2.419,0.365-3.56c1.598,0.548,3.195,1.004,4.93,1.232
	c1.278,0.274,2.556,0.365,3.834,0.365s2.51-0.091,3.789-0.365c1.735-0.228,3.378-0.685,4.975-1.232c0,1.232,0.137,2.419,0.365,3.56
	c-3.469,1.963-6.482,4.61-8.673,7.988c0,0.091-0.137,0.091-0.137,0.228h-0.228c-0.091,0.091-0.091,0.183-0.183,0.274
	c2.419,3.56,5.751,6.436,9.677,8.17c1.826,0.776,3.789,1.369,5.888,1.689c0.456,0.137,0.913,0.274,1.369,0.274
	c0.228-0.502,0.456-0.959,0.685-1.415c0.137-0.228,0.228-0.548,0.456-0.822c1.415-2.51,3.15-4.93,4.975-7.121
	c0.456-0.593,1.05-1.278,1.598-1.871c-1.232-1.598-2.51-3.241-3.56-4.975c-1.05-1.735-2.054-3.56-2.876-5.432
	c-0.685-1.598-1.415-3.332-1.963-5.204c-0.456-1.598-0.913-3.195-1.278-4.93c0.822,1.232,1.735,2.51,2.647,3.697
	C83.517-20.748,85.571-18.557,87.899-16.594z M55.354-17.279v-1.963c0-4.519-0.73-8.901-1.871-12.918
	c-0.456-0.137-0.913-0.228-1.278-0.502c-0.776-0.228-1.598-0.548-2.419-0.913c-3.789-1.598-7.395-4.017-10.361-6.938
	c1.735-0.456,3.423-0.548,5.295-0.548c1.598,0,3.241,0.228,4.838,0.456c0.228,0,0.456,0.091,0.593,0.091
	c1.369,0.365,2.739,0.822,4.154,1.415c0,0.091,0.091,0.228,0.091,0.32c0.73,2.282,1.187,4.701,1.415,7.075
	c0.228,1.826,0.32,3.697,0.32,5.523C56.13-23.167,55.81-20.155,55.354-17.279z M78.176-33.666c-0.776,0.32-1.598,0.685-2.419,0.913
	c-0.456,0.091-0.822,0.365-1.278,0.456c-1.232,4.154-1.826,8.444-1.826,12.963v1.963c-0.593-2.921-0.822-5.797-0.822-8.901
	c0-1.871,0.137-3.697,0.365-5.432c0.228-2.419,0.822-4.884,1.369-7.166c0-0.137,0-0.228,0.137-0.365
	c1.232-0.548,2.647-1.05,4.154-1.369c0.228-0.137,0.32-0.137,0.548-0.137c1.506-0.32,3.15-0.456,4.884-0.456
	c1.826,0,3.56,0.228,5.295,0.593C85.571-37.728,82.102-35.4,78.176-33.666z"/>
</svg>
