
<svg width="80px" height="80px" viewBox="0 0 80 80" version="1.1" xmlns="http://www.w3.org/2000/svg" xmlns:xlink="http://www.w3.org/1999/xlink">
    <!-- Generator: Sketch 51.2 (57519) - http://www.bohemiancoding.com/sketch -->
    <desc>Created with Sketch.</desc>
    <defs></defs>
    <g id="Normal-User-side" stroke="none" stroke-width="1" fill="none" fill-rule="evenodd">
        <g id="1030_Browse_Problems" transform="translate(-289.000000, -915.000000)">
            <g id="Problems" transform="translate(145.000000, 251.000000)">
                <g id="problem_thumbnail" transform="translate(0.000000, 588.000000)">
                    <g id="Group-15" transform="translate(15.000000, 15.000000)">
                        <g id="Environment" transform="translate(129.000000, 61.000000)">
                            <rect id="Rectangle" x="0" y="0" width="80" height="80"></rect>
                            <path d="M42.6516652,45.6380752 C43.954237,47.0346077 44.5898011,48.6427376 44.5116489,50.4178675 C44.4562036,50.9667098 44.3187936,51.5163341 44.0930144,52.0502117 C42.927883,54.8052819 39.7523689,56.097166 36.9948028,54.937954 L26.5308447,50.5391671 C25.5125877,50.1111173 24.3401245,50.5895747 23.9120747,51.6078317 C23.4840249,52.6260886 23.9624823,53.7985518 24.9807392,54.2266016 L35.4446974,58.6253885 C37.5857908,59.5254508 41.4560827,59.3689492 47.055573,58.1558838 C47.4420068,58.0721691 47.817146,57.9429104 48.1731285,57.7708183 L68.7667965,47.8152543 C73.1092717,45.9465439 76.6128956,46.2478391 78.6904021,49.0721311 C81.2606299,52.5662591 79.8404861,56.1108826 76.2333356,59.2989421 C74.7453822,60.6140199 64.9200661,67.7082559 50.2150911,78.2144933 C47.8749428,79.8863309 44.8477227,80.4215484 42.0323491,79.6611807 L19.7147862,73.6337197 L14,73.6337197 L14,43.5210364 L18.5031776,40.0149644 C21.1703268,37.9383824 24.8210496,37.4230831 28.0072286,38.6734682 C37.4982417,43.0742053 42.3797206,45.395741 42.6516652,45.6380752 Z M0,40 L0,36 L8,36 C9.1045695,36 10,36.8954305 10,38 L10,78 C10,79.1045695 9.1045695,80 8,80 L0,80 L0,76 L0,40 Z M59.3438974,29.5905403 C59.9463653,29.2196033 61.6610833,28.1492278 63.0284333,26.742727 C64.3195483,25.414644 65.2714515,23.7565625 65.6577538,23.1043564 C67.1416141,20.5991092 68.0591841,17.4928165 68.4104637,13.7854783 C66.8314286,19.6895215 63.9440339,23.6158362 59.7482798,25.5644223 C58.5403103,24.4642712 55.4670577,16.6867681 63.444858,9.93062093 C71.4226582,3.17447375 80,5.18120845 80,6.26004636 C80,7.33888428 73.1679315,9.71273934 74.4411329,16.3030931 C75.685526,22.7443287 73.9793643,29.0785955 66.2633103,29.013304 C63.555629,31.8579301 60.7764689,33.7488727 57.9102037,34.6518455 C57.8074429,38.5016828 56.1840973,42.7134292 52.7128444,47.2160793 C52.0355509,48.0946138 50.771912,48.2595892 49.8904279,47.584562 C49.0089438,46.9095348 48.8434146,45.6501242 49.5207081,44.7715897 C53.5578981,39.5348482 54.6107755,35.1129042 53.4476909,31.2982459 C53.1979851,30.4792665 52.225445,28.6109959 50.9003575,27.1035885 C49.4634978,25.46903 47.6541064,24.2075454 47.0312092,23.7911507 C43.0644667,21.1394606 38.0738616,19.5350188 32.0593941,18.9778251 C39.1854369,21.0433146 44.7629895,24.5298471 48.7920519,29.4374224 C40.6777677,34.5521443 32.593817,32.0885854 24.5401999,22.0467456 C20.2049974,15.6486068 18.9743907,8.29969156 20.8483799,0 C23.6975259,4.804538 27.8366255,7.29204005 33.2656786,7.46250615 C41.3061701,7.71496846 56.0399382,5.8888341 53.1518419,23.3416453 C55.2460406,25.5212471 56.7139473,27.9384731 57.425711,30.565155 C58.0605141,30.3115533 58.7000374,29.9869622 59.3438974,29.5905403 Z" id="Combined-Shape" fill="#FFFFFF" fill-rule="nonzero"></path>
                        </g>
                    </g>
                </g>
            </g>
        </g>
    </g>
</svg>