
<svg width="80px" height="80px" viewBox="0 0 80 80" version="1.1" xmlns="http://www.w3.org/2000/svg" xmlns:xlink="http://www.w3.org/1999/xlink">
    <!-- Generator: Sketch 51.2 (57519) - http://www.bohemiancoding.com/sketch -->
    <desc>Created with Sketch.</desc>
    <defs></defs>
    <g id="Normal-User-side" stroke="none" stroke-width="1" fill="none" fill-rule="evenodd">
        <g id="1030_Browse_Problems" transform="translate(-1069.000000, -620.000000)">
            <g id="Problems" transform="translate(145.000000, 251.000000)">
                <g id="problem_thumbnail" transform="translate(780.000000, 294.000000)">
                    <g id="Group-15" transform="translate(15.000000, 15.000000)">
                        <g id="Preventable-Disease" transform="translate(129.000000, 60.000000)">
                            <rect id="Rectangle" x="0" y="0" width="80" height="80"></rect>
                            <g id="Group-30" fill="#FFFFFF">
                                <path d="M71.5366517,35.7570275 C71.732098,38.9936143 71.2501831,42.2662078 70.0909068,45.3252298 L62.2611624,45.3252298 L52.2165583,34.7848513 C51.2747557,33.7965639 49.6700889,33.9548721 48.93409,35.1086828 L36.128425,55.1838673 L27.6709124,45.7854905 C27.272003,45.3422041 26.7073381,45.089606 26.1153124,45.089606 L18.9473684,45.089606 C17.7846637,45.089606 16.8421053,46.0447319 16.8421053,47.2229394 C16.8421053,48.4011468 17.7846637,49.3562727 18.9473684,49.3562727 L25.1859324,49.3562727 L34.8579143,60.1042235 C35.7881829,61.1379806 37.4320912,60.9998082 38.1815693,59.8248665 L51.0302839,39.6821938 L59.8531059,48.9404865 C60.2498222,49.3567836 60.7964183,49.5918965 61.3675194,49.5918965 L67.9294297,49.5918965 C67.1768983,50.7498312 66.3079878,51.8503001 65.3226982,52.8755293 L41.4668259,77.6984199 C39.9064047,79.3220941 37.8330141,80.0866896 35.7894737,79.9922064 C33.7459333,80.0866896 31.6725427,79.3220941 30.1121215,77.6984199 L6.25624922,52.8755293 C-2.08541641,44.1957271 -2.08541641,30.1229872 6.25624922,21.443185 C14.3766248,12.993643 27.4085103,12.7694912 35.7894737,20.7707295 C37.9847777,18.6748904 40.4991919,17.1434136 43.1608578,16.176299 C43.158885,16.2950707 43.1578947,16.4140848 43.1578947,16.5333333 C43.1578947,28.0208561 52.3478393,37.3333333 63.6842105,37.3333333 C66.465574,37.3333333 69.1177313,36.7727598 71.5366566,35.7570254 L71.5366517,35.7570275 Z M65,15 L65,9 C65,7.8954305 64.1045695,7 63,7 C61.8954305,7 61,7.8954305 61,9 L61,15 L55,15 C53.8954305,15 53,15.8954305 53,17 C53,18.1045695 53.8954305,19 55,19 L61,19 L61,25 C61,26.1045695 61.8954305,27 63,27 C64.1045695,27 65,26.1045695 65,25 L65,19 L71,19 C72.1045695,19 73,18.1045695 73,17 C73,15.8954305 72.1045695,15 71,15 L65,15 Z M63.6842105,33.0666667 C54.6732488,33.0666667 47.3684211,25.6644412 47.3684211,16.5333333 C47.3684211,7.40222547 54.6732488,0 63.6842105,0 C72.6951722,0 80,7.40222547 80,16.5333333 C80,25.6644412 72.6951722,33.0666667 63.6842105,33.0666667 Z" id="Combined-Shape"></path>
                            </g>
                        </g>
                    </g>
                </g>
            </g>
        </g>
    </g>
</svg>