<?xml version="1.0"?>
<svg xmlns="http://www.w3.org/2000/svg" xmlns:xlink="http://www.w3.org/1999/xlink" version="1.1" id="Capa_1" x="0px" y="0px" width="512px" height="512px" viewBox="0 0 448 448" style="enable-background:new 0 0 448 448;" xml:space="preserve" class=""><g><g>
	<path d="M279.412,311.368c-11.055-1.759-11.307-32.157-11.307-32.157s32.484-32.158,39.564-75.401   c19.045,0,30.809-45.973,11.76-62.148C320.227,124.635,343.91,8,224,8c-119.911,0-96.225,116.635-95.432,133.662   c-19.047,16.175-7.285,62.148,11.761,62.148c7.079,43.243,39.564,75.401,39.564,75.401s-0.252,30.398-11.307,32.157   C132.976,317.034,0,375.686,0,440h224h224C448,375.686,315.023,317.034,279.412,311.368z" data-original="#000000" class="active-path" data-old_color="#000000" fill="#FDF7F7"/>
</g></g> </svg>
