
<svg width="80px" height="80px" viewBox="0 0 80 80" version="1.1" xmlns="http://www.w3.org/2000/svg" xmlns:xlink="http://www.w3.org/1999/xlink">
    <!-- Generator: Sketch 51.2 (57519) - http://www.bohemiancoding.com/sketch -->
    <desc>Created with Sketch.</desc>
    <defs></defs>
    <g id="Normal-User-side" stroke="none" stroke-width="1" fill="none" fill-rule="evenodd">
        <g id="1030_Browse_Problems" transform="translate(-679.000000, -915.000000)">
            <g id="Problems" transform="translate(145.000000, 251.000000)">
                <g id="problem_thumbnail" transform="translate(390.000000, 588.000000)">
                    <g id="Group-15" transform="translate(15.000000, 15.000000)">
                        <g id="Sustainable-Future" transform="translate(129.000000, 61.000000)">
                            <rect id="Rectangle" x="0" y="0" width="80" height="80"></rect>
                            <path d="M54.8317719,74.1673197 C53.4741446,73.6162343 52.2151179,72.873102 51.0884715,71.9716716 L46.8200047,73.9678278 C46.2128518,74.2517639 45.4891952,74.0243837 45.1540077,73.4443548 L41.1731562,66.5556455 C40.8379687,65.9756165 41.0026993,65.2357963 41.5523977,64.8524372 L45.5453861,62.0677311 C45.470808,61.4606113 45.4324087,60.8423128 45.4324087,60.2150538 C45.4324087,59.4519729 45.4892378,58.702153 45.5988982,57.9695881 L41.5523977,55.1475628 C41.0026993,54.7642037 40.8379687,54.0243835 41.1731562,53.4443545 L45.1540076,46.5556455 C45.4891951,45.9756165 46.2128519,45.7482363 46.8200049,46.0321727 L51.4341311,48.1899787 C52.4597718,47.4169342 53.58745,46.7718338 54.7933927,46.2784285 L55.2323929,41.1797355 C55.2898473,40.51244 55.8487736,40 56.5191487,40 L64.4808513,40 C65.1512264,40 65.7101527,40.51244 65.7676071,41.1797355 L66.2066073,46.2784285 C67.41255,46.7718338 68.5402282,47.4169342 69.5658689,48.1899787 L74.1799951,46.0321727 C74.7871481,45.7482363 75.5108049,45.9756165 75.8459924,46.5556455 L79.8268438,53.4443545 C80.1620313,54.0243835 79.9973007,54.7642037 79.4476023,55.1475628 L75.4011018,57.9695881 C75.5107622,58.702153 75.5675913,59.4519729 75.5675913,60.2150538 C75.5675913,60.8423128 75.529192,61.4606113 75.4546139,62.0677311 L79.4476023,64.8524372 C79.9973007,65.2357963 80.1620313,65.9756165 79.8268438,66.5556455 L75.8459924,73.4443545 C75.5108049,74.0243835 74.7871481,74.2517637 74.1799951,73.9678273 L69.9115299,71.9716705 C68.7848821,72.873102 67.5258554,73.6162343 66.1682281,74.1673197 L65.7676071,78.8202645 C65.7101527,79.48756 65.1512264,80 64.4808513,80 L56.5191487,80 C55.8487736,80 55.2898473,79.48756 55.2323929,78.8202645 L54.8317719,74.1673197 Z M60.5,68.3870968 C65.0174405,68.3870968 68.6795496,64.7283485 68.6795496,60.2150538 C68.6795496,55.701759 65.0174405,52.0430108 60.5,52.0430108 C55.9825595,52.0430108 52.3204504,55.701759 52.3204504,60.2150538 C52.3204504,64.7283485 55.9825595,68.3870968 60.5,68.3870968 Z M13.8317719,66.1673197 C12.4741446,65.6162343 11.2151179,64.873102 10.0884715,63.9716716 L5.8200047,65.9678278 C5.21285183,66.2517639 4.48919519,66.0243837 4.15400774,65.4443548 L0.173156226,58.5556455 C-0.162031293,57.9756165 0.0026992884,57.2357963 0.552397713,56.8524372 L4.54538613,54.0677311 C4.47080798,53.4606113 4.43240869,52.8423128 4.43240869,52.2150538 C4.43240869,51.4519729 4.48923776,50.702153 4.5988982,49.9695881 L0.552397713,47.1475628 C0.0026992884,46.7642037 -0.162031293,46.0243835 0.173156226,45.4443545 L4.15400758,38.5556455 C4.48919509,37.9756165 5.21285195,37.7482363 5.82000486,38.0321727 L10.4341311,40.1899787 C11.4597718,39.4169342 12.58745,38.7718338 13.7933927,38.2784285 L14.2323929,33.1797355 C14.2898473,32.51244 14.8487736,32 15.5191487,32 L23.4808513,32 C24.1512264,32 24.7101527,32.51244 24.7676071,33.1797355 L25.2066073,38.2784285 C26.41255,38.7718338 27.5402282,39.4169342 28.5658689,40.1899787 L33.1799951,38.0321727 C33.7871481,37.7482363 34.5108049,37.9756165 34.8459924,38.5556455 L38.8268438,45.4443545 C39.1620313,46.0243835 38.9973007,46.7642037 38.4476023,47.1475628 L34.4011018,49.9695881 C34.5107622,50.702153 34.5675913,51.4519729 34.5675913,52.2150538 C34.5675913,52.8423128 34.529192,53.4606113 34.4546139,54.0677311 L38.4476023,56.8524372 C38.9973007,57.2357963 39.1620313,57.9756165 38.8268438,58.5556455 L34.8459924,65.4443545 C34.5108049,66.0243835 33.7871481,66.2517637 33.1799951,65.9678273 L28.9115299,63.9716705 C27.7848821,64.873102 26.5258554,65.6162343 25.1682281,66.1673197 L24.7676071,70.8202645 C24.7101527,71.48756 24.1512264,72 23.4808513,72 L15.5191487,72 C14.8487736,72 14.2898473,71.48756 14.2323929,70.8202645 L13.8317719,66.1673197 Z M19.5,60.3870968 C24.0174405,60.3870968 27.6795496,56.7283485 27.6795496,52.2150538 C27.6795496,47.701759 24.0174405,44.0430108 19.5,44.0430108 C14.9825595,44.0430108 11.3204504,47.701759 11.3204504,52.2150538 C11.3204504,56.7283485 14.9825595,60.3870968 19.5,60.3870968 Z M41.8317719,34.1673197 C40.4741446,33.6162343 39.2151179,32.873102 38.0884715,31.9716716 L33.8200047,33.9678278 C33.2128518,34.2517639 32.4891952,34.0243837 32.1540077,33.4443548 L28.1731562,26.5556455 C27.8379687,25.9756165 28.0026993,25.2357963 28.5523977,24.8524372 L32.5453861,22.0677311 C32.470808,21.4606113 32.4324087,20.8423128 32.4324087,20.2150538 C32.4324087,19.4519729 32.4892378,18.702153 32.5988982,17.9695881 L28.5523977,15.1475628 C28.0026993,14.7642037 27.8379687,14.0243835 28.1731562,13.4443545 L32.1540076,6.55564547 C32.4891951,5.97561645 33.2128519,5.74823633 33.8200049,6.03217268 L38.4341311,8.18997867 C39.4597718,7.41693424 40.58745,6.77183377 41.7933927,6.27842847 L42.2323929,1.17973549 C42.2898473,0.512440015 42.8487736,6.96051218e-16 43.5191487,5.73018335e-16 L51.4808513,0 C52.1512264,-1.90763154e-15 52.7101527,0.512440015 52.7676071,1.17973549 L53.2066073,6.27842847 C54.41255,6.77183377 55.5402282,7.41693424 56.5658689,8.18997867 L61.1799951,6.03217268 C61.7871481,5.74823633 62.5108049,5.97561645 62.8459924,6.55564547 L66.8268438,13.4443545 C67.1620313,14.0243835 66.9973007,14.7642037 66.4476023,15.1475628 L62.4011018,17.9695881 C62.5107622,18.702153 62.5675913,19.4519729 62.5675913,20.2150538 C62.5675913,20.8423128 62.529192,21.4606113 62.4546139,22.0677311 L66.4476023,24.8524372 C66.9973007,25.2357963 67.1620313,25.9756165 66.8268438,26.5556455 L62.8459924,33.4443545 C62.5108049,34.0243835 61.7871481,34.2517637 61.1799951,33.9678273 L56.9115299,31.9716705 C55.7848821,32.873102 54.5258554,33.6162343 53.1682281,34.1673197 L52.7676071,38.8202645 C52.7101527,39.48756 52.1512264,40 51.4808513,40 L43.5191487,40 C42.8487736,40 42.2898473,39.48756 42.2323929,38.8202645 L41.8317719,34.1673197 Z M47.5,28.3870968 C52.0174405,28.3870968 55.6795496,24.7283485 55.6795496,20.2150538 C55.6795496,15.701759 52.0174405,12.0430108 47.5,12.0430108 C42.9825595,12.0430108 39.3204504,15.701759 39.3204504,20.2150538 C39.3204504,24.7283485 42.9825595,28.3870968 47.5,28.3870968 Z" id="Combined-Shape" fill="#FFFFFF"></path>
                        </g>
                    </g>
                </g>
            </g>
        </g>
    </g>
</svg>