
<svg width="80px" height="80px" viewBox="0 0 80 80" version="1.1" xmlns="http://www.w3.org/2000/svg" xmlns:xlink="http://www.w3.org/1999/xlink">
    <!-- Generator: Sketch 51.2 (57519) - http://www.bohemiancoding.com/sketch -->
    <desc>Created with Sketch.</desc>
    <defs></defs>
    <g id="Normal-User-side" stroke="none" stroke-width="1" fill="none" fill-rule="evenodd">
        <g id="1030_Browse_Problems" transform="translate(-679.000000, -325.000000)">
            <g id="Problems" transform="translate(145.000000, 251.000000)">
                <g id="problem_thumbnail" transform="translate(390.000000, 0.000000)">
                    <g id="Group-15" transform="translate(15.000000, 15.000000)">
                        <g id="Human-Trafficking" transform="translate(129.000000, 59.000000)">
                            <rect id="Rectangle" x="0" y="0" width="80" height="80"></rect>
                            <path d="M16.391018,34.0649445 C18.1140264,26.0292594 25.3279918,20 33.9657013,20 L37.3036713,20 C39.6327973,20 41.7506423,21.3357058 42.7332365,23.4243781 L44.3950171,27.1281715 L51.4794594,42.9583729 C51.6057866,43.2186003 51.8386103,43.411375 52.1178358,43.4869396 L74.1228575,49.5296672 C76.6724544,50.2298038 78.2196844,52.8122799 77.634328,55.3906503 C77.0484559,57.9712919 74.5394392,59.6371742 71.9336877,59.1756374 L44.2071259,54.2646445 C43.5886229,54.1621942 43.0539482,53.7756508 42.7627659,53.2204436 L35.0411196,37.5368529 C34.4483825,36.3329326 33.0874206,35.7157567 31.7912211,36.0630723 C31.6595152,36.0983627 31.5321217,36.1481276 31.411369,36.2114572 C30.9645842,36.4457765 30.65357,36.8372681 30.5106098,37.2824401 L29.4207802,36.7460874 C25.7224556,34.9259803 21.9539913,34 18.1517492,34 C17.5695579,34 16.9826426,34.0216964 16.391018,34.0649445 Z M31.789039,40.9086723 L35.9741464,48.8885603 C33.6681814,47.9720832 31.3783651,47.2716311 29.1077988,46.7901479 L31.789039,40.9086723 Z M35.1518057,79.6942287 C38.016038,77.2088084 39.5558088,73.6105128 39.5558088,69 C39.5558088,65.7841926 38.8158892,62.5211325 37.4718127,59.4685512 C38.3891262,58.819075 39.134587,57.903515 39.5785549,56.7794944 C39.678955,56.5253055 39.7608561,56.2682297 39.8248878,56.0097912 C40.74228,57.171668 42.0671942,57.9646845 43.5534628,58.2108737 L51.8375812,59.5830754 L50.6913488,64.8316537 C49.0071623,72.5435145 42.7819747,78.3321498 35.1518057,79.6942287 Z M49.3736873,28.460779 L48.0460743,25.4942248 L46.3827369,21.7869572 C45.2816211,19.4453489 43.3774623,17.6806087 41.1006294,16.7468476 C41.0341657,16.1737901 41,15.5908849 41,15 C41,6.71572875 47.7157288,0 56,0 C64.2842712,0 71,6.71572875 71,15 C71,23.2842712 64.2842712,30 56,30 C53.6212905,30 51.3719024,29.4463091 49.3736873,28.460779 Z M72.8047094,44.9413778 L68.6496469,43.8169265 L67.1479235,37.3984578 C66.7584095,35.7336485 65.9975052,34.2337611 64.9649196,32.976207 C67.9944204,33.1976456 70.5592392,35.344085 71.2531073,38.3097245 L72.8047094,44.9413778 Z M76.6625885,61.4302164 L79.8994112,75.264618 C79.9662532,75.5503051 80,75.8425893 80,76.1358264 C80,78.2699505 78.2508649,80 76.0931975,80 C75.7319422,80 75.37487,79.9742875 75.0241627,79.9242804 C75.6459223,78.8015133 76,77.5106692 76,76.1358264 C76,75.5357615 75.9309499,74.9377128 75.7942274,74.3533512 L73.070855,62.7134717 C74.3603007,62.546572 75.5829804,62.1019634 76.6625885,61.4302164 Z M51.0708603,32.9573078 L56.4463318,32.9573078 C59.698108,32.9573078 62.5199687,35.1762402 63.2531073,38.3097245 L64.2639313,42.6300554 L54.4813153,39.9826644 L51.0708603,32.9573078 Z M22.9128459,50.0229856 C26.7583004,50.1742204 30.7103535,51.0715889 34.7576362,52.7103845 C35.7705783,53.1205375 36.2633379,54.2844425 35.8582457,55.310039 C35.4531535,56.3356356 34.3036095,56.8345512 33.2906674,56.4243982 C32.2298403,55.994856 31.179978,55.6225454 30.1407917,55.3073467 C33.428098,59.0782341 35.5558088,64.0800066 35.5558088,69 C35.5558088,78.836556 27.0508996,80 17.7779044,80 C8.50490922,80 -2.77308769e-14,78.836556 -2.84217094e-14,69 C-2.84217094e-14,59.163444 8.50490922,49 17.7779044,49 C19.5346537,49 21.2638361,49.3647711 22.9128459,50.0229856 Z M68.8913365,62.4079013 L71.8994112,75.264618 C71.9662532,75.5503051 72,75.8425893 72,76.1358264 C72,78.2699505 70.2508649,80 68.0931975,80 C65.1102145,80 62.4124392,78.2468559 61.2282888,75.5388523 L54.4396514,60.0140887 L68.8913365,62.4079013 Z M24.8403382,46.5080902 C22.5948298,45.5402032 20.21065,45 17.7779044,45 C15.3451588,45 12.960979,45.5402032 10.7154706,46.5080902 L7.90129084,40.3350033 C11.5627879,38.7783344 14.9796074,38 18.1517492,38 C21.323891,38 24.4914806,38.7783344 27.654518,40.3350033 L24.8403382,46.5080902 Z M16.790243,56.2070325 C14.5102221,56.8599614 12.8395976,58.9824458 12.8395976,61.5 C12.8395976,64.5375661 15.2716484,67 18.2717351,67 C19.0899405,67 19.7532271,67.6715729 19.7532271,68.5 C19.7532271,69.3284271 19.0899405,70 18.2717351,70 C17.4535296,70 16.790243,69.3284271 16.790243,68.5 C16.790243,67.3954305 15.9058609,66.5 14.8149203,66.5 C13.7239797,66.5 12.8395976,67.3954305 12.8395976,68.5 C12.8395976,71.0175542 14.5102221,73.1400386 16.790243,73.7929675 L16.790243,74 C16.790243,75.1045695 17.6746251,76 18.7655658,76 C19.8565064,76 20.7408885,75.1045695 20.7408885,74 L20.7408885,73.4002904 C22.4997533,72.4899349 23.7038725,70.6373427 23.7038725,68.5 C23.7038725,65.4624339 21.2718218,63 18.2717351,63 C17.4535296,63 16.790243,62.3284271 16.790243,61.5 C16.790243,60.6715729 17.4535296,60 18.2717351,60 C19.0899405,60 19.7532271,60.6715729 19.7532271,61.5 C19.7532271,62.6045695 20.6376092,63.5 21.7285498,63.5 C22.8194904,63.5 23.7038725,62.6045695 23.7038725,61.5 C23.7038725,59.3626573 22.4997533,57.5100651 20.7408885,56.5997096 L20.7408885,56 C20.7408885,54.8954305 19.8565064,54 18.7655658,54 C17.6746251,54 16.790243,54.8954305 16.790243,56 L16.790243,56.2070325 Z" id="Combined-Shape" fill="#FFFFFF"></path>
                        </g>
                    </g>
                </g>
            </g>
        </g>
    </g>
</svg>