
<svg width="80px" height="80px" viewBox="0 0 80 80" version="1.1" xmlns="http://www.w3.org/2000/svg" xmlns:xlink="http://www.w3.org/1999/xlink">
    <!-- Generator: Sketch 51.2 (57519) - http://www.bohemiancoding.com/sketch -->
    <desc>Created with Sketch.</desc>
    <defs></defs>
    <g id="Normal-User-side" stroke="none" stroke-width="1" fill="none" fill-rule="evenodd">
        <g id="1030_Browse_Problems" transform="translate(-289.000000, -325.000000)">
            <g id="Problems" transform="translate(145.000000, 251.000000)">
                <g id="problem_thumbnail">
                    <g id="Group-15" transform="translate(15.000000, 15.000000)">
                        <g id="Basic-Needs" transform="translate(129.000000, 59.000000)">
                            <rect id="Rectangle" x="0" y="0" width="80" height="80"></rect>
                            <g id="Group-2" fill="#FFFFFF">
                                <g id="Group">
                                    <path d="M26,61.1518237 L26,72 C26,73.1045695 26.8954305,74 28,74 C29.1045695,74 30,73.1045695 30,72 L30,58.3056165 L41.6725391,50 L73,50 L65.7918265,77.0306506 C65.3248895,78.7816643 63.7390895,80 61.9268867,80 L18.0731133,80 C16.2609105,80 14.6751105,78.7816643 14.2081735,77.0306506 L12.5297594,70.7365979 L26,61.1518237 Z M9.74187231,60.2820212 L7,50 L24.1920091,50 L29.8135252,46 L2,46 C0.8954305,46 2.46293053e-16,45.1045695 1.11022302e-16,44 L1.11022302e-16,36 C-2.42484478e-17,34.8954305 0.8954305,34 2,34 L78,34 C79.1045695,34 80,34.8954305 80,36 L80,44 C80,45.1045695 79.1045695,46 78,46 L47.2940552,46 L47.6750096,45.7289312 C49.0888075,44.7229407 49.4241022,42.754669 48.4239113,41.3326733 C48.2100588,41.028634 47.9524688,40.7741849 47.6658017,40.5718523 C47.4424895,41.0192893 47.1097351,41.4196015 46.6750096,41.7289312 L4.94700213,71.4205709 C3.53320423,72.4265613 1.57627964,72.0893224 0.576088722,70.6673267 C-0.424102195,69.245331 -0.0888074855,67.2770593 1.32499042,66.2710688 L9.74187231,60.2820212 Z M56.6063765,30 C56.8371501,29.0242775 56.955157,28.0188858 56.955157,27 C56.955157,22.7533232 54.9189082,18.9822379 51.769514,16.6098474 C53.9636341,15.5772274 56.4144077,15 59,15 C61.2914308,15 63.4769744,15.453357 65.4718277,16.275268 C66.7364164,14.6019295 68.4531317,13.541875 70.5935316,13.1252113 C71.0078774,13.0445522 71.4091582,13.3150586 71.4898173,13.7294044 C71.4936345,13.7490132 71.4966814,13.7687642 71.4989511,13.7886118 L71.5458698,14.198802 C71.5946671,14.6255156 71.309745,15.0189315 70.8890983,15.1056616 C69.4223349,15.4080828 68.2379069,16.0890901 67.3161679,17.1694796 C71.9480196,19.7723554 75.2369584,24.4823256 75.8835937,30 L72.9734663,30 C72.6020059,26.5974044 71.2264524,23.4965446 69.1493849,21 C70.3792131,23.3521002 71.0746925,26.0277688 71.0746925,28.8658752 C71.0746925,29.2469758 71.0621522,29.6251474 71.0374619,30 L56.6063765,30 Z M61.1495333,13.0960918 C60.8140761,11.3948023 61.0430326,9.69610505 61.8364026,8 C63.9799562,9.47141574 65.1793584,11.3343378 65.4346092,13.5887663 C65.2699963,13.7717501 65.1118368,13.9636063 64.96018,14.1642828 C63.7534831,13.6671047 62.4770108,13.3047843 61.1495333,13.0960918 Z M26.1887814,30 L25.2483968,26.9746458 C24.704156,25.0147164 24.1305138,23.0905638 23.389144,20.8556038 C23.0501122,19.8335463 22.7019557,18.828973 22.3445584,17.8457392 C23.3519756,16.7133336 24.8202623,16 26.455157,16 C29.0658879,16 31.2517641,17.8190193 31.8145273,20.2587998 C31.8891306,20.616534 31.928346,20.9872548 31.928346,21.3671348 C31.928346,22.323089 31.6800112,23.2210416 31.244334,24 C31.7920332,23.4363389 32.2279539,22.7634836 32.5163202,22.01721 C33.5395758,22.0801596 34.5165845,22.3140882 35.4191312,22.6907808 C37.4023243,23.6892909 38.804073,25.6734714 38.9810552,28 C38.9936085,27.8349792 39,27.668236 39,27.5 C39,25.3362853 37.9427872,23.4194959 36.316747,22.2380172 C37.9067057,19.6930454 40.7332154,18 43.955157,18 C48.9257197,18 52.955157,22.0294373 52.955157,27 C52.955157,28.0519063 52.7746943,29.0616632 52.4430399,30 L26.1887814,30 Z M4.81595062,30 C2.96682993,22.8418508 -0.992835396,4.91657464 5.91479299,3.12795002 C13.7551111,1.09781967 20.2271013,23.835592 21.4104466,28.1033208 L22,30 L4.81595062,30 Z M26,0 L54,0 C55.1045695,-2.02906125e-16 56,0.8954305 56,2 L56,5 L24,5 L24,2 C24,0.8954305 24.8954305,2.02906125e-16 26,0 Z M22.7497406,12.7507783 L24,9 L56,9 L56.7079957,11.1239871 C54.3940769,11.3756809 52.1552784,12.0074477 50.0662005,12.9906316 C49.2346782,13.3819714 48.6211485,14.0002968 48.2383583,14.7221217 C46.8971742,14.2542862 45.4558615,14 43.955157,14 C40.5834477,14 37.4315025,15.2960517 35.0674,17.5114963 C33.524194,14.1978915 30.2128836,12 26.455157,12 C25.1477704,12 23.8941444,12.2660983 22.7497406,12.7507783 Z M11.0661211,8.24619265 C10.0762335,7.6939079 8.81046911,8.02165821 8.23895722,8.97824346 L4.09970201,15.9064467 C3.52819012,16.8630319 3.86735067,18.0862127 4.85723829,18.6384975 C5.84712591,19.1907822 7.11289029,18.8630319 7.68440218,17.9064467 L11.8236574,10.9782435 C12.3951693,10.0216582 12.0560087,8.7984774 11.0661211,8.24619265 Z M13.4765868,16.9395251 C12.4866992,16.3872403 11.2209348,16.7149907 10.6494229,17.6715759 L6.51016769,24.5997791 C5.93865581,25.5563644 6.27781635,26.7795452 7.26770397,27.3318299 C8.25759159,27.8841147 9.52335598,27.5563644 10.0948679,26.5997791 L14.2341231,19.6715759 C14.805635,18.7149907 14.4664744,17.4918098 13.4765868,16.9395251 Z M40,56 C38.8954305,56 38,56.8954305 38,58 L38,72 C38,73.1045695 38.8954305,74 40,74 C41.1045695,74 42,73.1045695 42,72 L42,58 C42,56.8954305 41.1045695,56 40,56 Z M52,56 C50.8954305,56 50,56.8954305 50,58 L50,72 C50,73.1045695 50.8954305,74 52,74 C53.1045695,74 54,73.1045695 54,72 L54,58 C54,56.8954305 53.1045695,56 52,56 Z" id="Combined-Shape"></path>
                                </g>
                            </g>
                        </g>
                    </g>
                </g>
            </g>
        </g>
    </g>
</svg>