
<svg width="80px" height="80px" viewBox="0 0 80 80" version="1.1" xmlns="http://www.w3.org/2000/svg" xmlns:xlink="http://www.w3.org/1999/xlink">
    <!-- Generator: Sketch 51.2 (57519) - http://www.bohemiancoding.com/sketch -->
    <desc>Created with Sketch.</desc>
    <defs></defs>
    <g id="Normal-User-side" stroke="none" stroke-width="1" fill="none" fill-rule="evenodd">
        <g id="1030_Browse_Problems" transform="translate(-289.000000, -620.000000)">
            <g id="Problems" transform="translate(145.000000, 251.000000)">
                <g id="problem_thumbnail" transform="translate(0.000000, 294.000000)">
                    <g id="Group-15" transform="translate(15.000000, 15.000000)">
                        <g id="Human-Rights" transform="translate(129.000000, 60.000000)">
                            <rect id="Rectangle" x="0" y="0" width="80" height="80"></rect>
                            <path d="M65.199306,22.7357164 C63.272621,22.2547221 61.7510127,20.7541818 61.2439726,18.8421149 C55.2101834,21.4043924 52.1763942,23.0101284 46.1426049,23.6593231 L45.7792126,27.8996746 C45.2608142,33.9487601 45.2941731,38.032492 45.8788761,44.0755266 L48,67.9978088 L32,67.9978088 L34.1211239,44.0755266 C34.7058269,38.032492 34.7391858,33.9487601 34.2207874,27.8996746 L33.8573951,23.6593231 C27.8236058,23.0101284 24.7898166,21.4043924 18.7560274,18.8421149 C18.2678226,20.6831532 16.839027,22.1426714 15.0137006,22.6779235 L21.2298573,43.9975615 L17.97771,43.9975615 L13.1149286,27.3765618 L8.25214734,43.9975615 L5,43.9975615 L11.2838254,22.4458391 C9.35099162,21.6045743 8,19.6812389 8,17.4431246 C8,14.4301122 10.4484428,11.9875831 13.46875,11.9875831 L66.53125,11.9875831 C69.5515572,11.9875831 72,14.4301122 72,17.4431246 C72,19.6021527 70.742799,21.468255 68.9188575,22.3526386 L75.2298573,43.9975615 L71.97771,43.9975615 L67.1149286,27.3765618 L62.2521473,43.9975615 L59,43.9975615 L65.199306,22.7357164 Z M31,8.00146081 C31.7323492,3.77631292 35.023232,0.420568451 39.2187163,0.035778292 C39.4786652,0.0119369998 39.7394479,-2.84217094e-14 40.0003499,-2.84217094e-14 C44.4831703,-2.84217094e-14 48.2132558,3.44847865 49,8.00146081 L31,8.00146081 Z M40,20.9892265 C41.6568542,20.9892265 43,19.6458355 43,17.9886787 C43,16.3315219 41.6568542,14.9881309 40,14.9881309 C38.3431458,14.9881309 37,16.3315219 37,17.9886787 C37,19.6458355 38.3431458,20.9892265 40,20.9892265 Z M56,74.999087 C58.7614237,74.999087 61,77.238072 61,80 L19,80 C19,77.238072 21.2385763,74.999087 24,74.999087 L24.1260175,74.999087 C24.5700603,73.2735448 26.1361606,71.9985392 28,71.9985392 L52,71.9985392 C53.8638394,71.9985392 55.4299397,73.2735448 55.8739825,74.999087 L56,74.999087 Z M1,47.9941568 L25,47.9941568 C25.5522847,47.9941568 26,48.4419538 26,48.9943394 C26,55.0705809 21.0751322,59.996348 15,59.996348 L11,59.996348 C4.92486775,59.996348 0,55.0705809 0,48.9943394 C0,48.4419538 0.44771525,47.9941568 1,47.9941568 Z M55,47.9941568 L79,47.9941568 C79.5522847,47.9941568 80,48.4419538 80,48.9943394 C80,55.0705809 75.0751322,59.996348 69,59.996348 L65,59.996348 C58.9248678,59.996348 54,55.0705809 54,48.9943394 C54,48.4419538 54.4477153,47.9941568 55,47.9941568 Z" id="Combined-Shape" fill="#FFFFFF"></path>
                        </g>
                    </g>
                </g>
            </g>
        </g>
    </g>
</svg>