
<svg width="74px" height="80px" viewBox="0 0 74 80" version="1.1" xmlns="http://www.w3.org/2000/svg" xmlns:xlink="http://www.w3.org/1999/xlink">
    <!-- Generator: Sketch 51.2 (57519) - http://www.bohemiancoding.com/sketch -->
    <desc>Created with Sketch.</desc>
    <defs></defs>
    <g id="Normal-User-side" stroke="none" stroke-width="1" fill="none" fill-rule="evenodd">
        <g id="1030_Browse_Problems" transform="translate(-682.000000, -620.000000)">
            <g id="Problems" transform="translate(145.000000, 251.000000)">
                <g id="problem_thumbnail" transform="translate(390.000000, 294.000000)">
                    <g id="Group-15" transform="translate(15.000000, 15.000000)">
                        <g id="Peace-Security" transform="translate(129.000000, 60.000000)">
                            <rect id="Rectangle" x="0" y="0" width="80" height="80"></rect>
                            <g id="Group-3" transform="translate(3.000000, 0.000000)" fill="#FFFFFF">
                                <path d="M70.2842126,8.74606591 C72.5705508,9.36653887 74.1155597,11.505147 73.9932213,13.8800922 L72.6946785,39.0885989 C71.7820066,56.8062263 60.314308,72.2206897 43.6530087,78.1253554 L39.6496362,79.5441268 C37.9345091,80.1519577 36.0654909,80.1519577 34.3503638,79.5441268 L30.3469913,78.1253554 C13.685692,72.2206897 2.21799344,56.8062263 1.30532148,39.0885989 L0.00677869337,13.8800922 C-0.115559688,11.505147 1.4294492,9.36653887 3.7157874,8.74606591 L34.9233427,0.276870717 C36.2836386,-0.0922902392 37.7163614,-0.0922902392 39.0766573,0.276870717 L70.2842126,8.74606591 Z M37.7671096,5.10233287 C37.2643372,4.96588904 36.7356628,4.96588904 36.2328904,5.10233287 L5.02533505,13.5715281 C5.01715663,13.5737475 5.44161191,21.993698 6.29870091,38.8313795 C7.10739997,54.5305892 17.2654101,68.1846171 32.0171792,73.4125566 L36.0205517,74.8313281 C36.6551445,75.056224 37.3448555,75.056224 37.9794483,74.8313281 L41.9828208,73.4125566 C56.7345899,68.1846171 66.8926,54.5305892 67.7012991,38.8313795 L68.9998419,13.6228728 C69.0008082,13.6041128 58.5898975,10.7639328 37.7671096,5.10233287 Z M37,11.0194166 L37,68.9540926 L33.5867066,67.7444416 C21.2088713,63.3578102 12.6816438,51.8958211 12.0025545,38.7127139 L10.9403162,18.0915678 L37,11.0194166 Z" id="Combined-Shape"></path>
                            </g>
                        </g>
                    </g>
                </g>
            </g>
        </g>
    </g>
</svg>