
<svg width="16px" height="18px" viewBox="0 0 16 18" version="1.1" xmlns="http://www.w3.org/2000/svg" xmlns:xlink="http://www.w3.org/1999/xlink">
    <!-- Generator: Sketch 51.2 (57519) - http://www.bohemiancoding.com/sketch -->
    <desc>Created with Sketch.</desc>
    <defs></defs>
    <g id="Normal-User-side" stroke="none" stroke-width="1" fill="none" fill-rule="evenodd">
        <g id="1021_My-Profile_My-Givelist" transform="translate(-1224.000000, -933.000000)">
            <g id="Body_content" transform="translate(145.000000, 343.000000)">
                <g id="Org" transform="translate(15.000000, 402.000000)">
                    <g id="list" transform="translate(0.000000, 161.000000)">
                        <g id="Trash" transform="translate(1064.000000, 28.000000)">
                            <rect id="Rectangle-4" x="0" y="0" width="16" height="16"></rect>
                            <g id="Group-18" transform="translate(1.000000, 0.000000)" stroke="#4A5865" stroke-linecap="round" stroke-linejoin="round">
                                <path d="M12.5217391,2.08695652 L11.9582609,13.3565217 C11.8840591,14.8387251 10.6597106,16.0018562 9.17565217,16 L4.73391304,16 C3.24985463,16.0018562 2.02550617,14.8387251 1.95130435,13.3565217 L1.39130435,2.08695652" id="Shape"></path>
                                <path d="M0,2.08695652 L13.9099998,2.08695652" id="Shape"></path>
                                <path d="M5.04347826,4.86956522 L5.54357661,12.5232443" id="Shape"></path>
                                <path d="M9.02173913,4.86956522 L8.52164078,12.5232443" id="Shape"></path>
                                <path d="M4.17391304,2.08695652 L4.55304348,0.953043478 C4.74163564,0.384814752 5.27259742,0.000953197505 5.87130435,0 L8.03826087,0 C8.63696779,0.000953197505 9.16792958,0.384814752 9.35652174,0.953043478 L9.73913043,2.08695652" id="Shape"></path>
                            </g>
                        </g>
                    </g>
                </g>
            </g>
        </g>
    </g>
</svg>