
<svg width="70px" height="80px" viewBox="0 0 70 80" version="1.1" xmlns="http://www.w3.org/2000/svg" xmlns:xlink="http://www.w3.org/1999/xlink">
    <!-- Generator: Sketch 51.2 (57519) - http://www.bohemiancoding.com/sketch -->
    <desc>Created with Sketch.</desc>
    <defs></defs>
    <g id="Normal-User-side" stroke="none" stroke-width="1" fill="none" fill-rule="evenodd">
        <g id="1030_Browse_Problems" transform="translate(-1074.000000, -325.000000)">
            <g id="Problems" transform="translate(145.000000, 251.000000)">
                <g id="problem_thumbnail" transform="translate(780.000000, 0.000000)">
                    <g id="Group-15" transform="translate(15.000000, 15.000000)">
                        <g id="Disaster-Relief" transform="translate(129.000000, 59.000000)">
                            <rect id="Rectangle" x="0" y="0" width="80" height="80"></rect>
                            <path d="M54.6942877,43.1202483 C50.550599,44.2888442 45.7972113,43.666413 40.3548365,41.202042 C36.2505894,39.3435909 32.3913845,38.404566 28.8002765,38.3997712 L34.399827,30.8367582 C36.7194093,27.7038226 41.1069929,27.068886 44.1997693,29.4185877 C44.7304058,29.8217328 45.2017837,30.2992314 45.5997611,30.8367582 L54.6942877,43.1202483 Z M45.9699954,80 L47,72.6340743 L38.8664853,62.4571856 L41.2355106,52 L34,62.4571856 L40.3172273,73.8965224 L36.5010111,80 L11.9999588,80 C8.13398831,80 5,76.8253173 5,72.9091478 C5,71.3748986 5.49124221,69.8820359 6.39999176,68.6546365 L26.0636686,42.095961 C29.8435467,41.4420417 34.1041202,42.1833987 38.8996329,44.3548629 C45.5719721,47.3761761 51.5966764,47.9674903 56.8746875,46.0651977 L73.5995963,68.6546365 C75.9191786,71.7875721 75.2923809,76.2321278 72.1996045,78.5818296 C70.9879385,79.5023791 69.5142118,80 67.9996292,80 L45.9699954,80 Z M46,6 C49.3137085,6 52,8.6862915 52,12 C52,15.3137085 49.3137085,18 46,18 C42.6862915,18 42.0418982,24 40,24 C37.9581018,24 37.3137085,18 34,18 C30.6862915,18 28,15.3137085 28,12 C28,8.6862915 30.6862915,6 34,6 C34,2.6862915 36.6862915,0 40,0 C43.3137085,0 46,2.6862915 46,6 Z" id="Combined-Shape" fill="#FFFFFF"></path>
                        </g>
                    </g>
                </g>
            </g>
        </g>
    </g>
</svg>