<?xml version="1.0" encoding="UTF-8"?>
<svg width="128px" height="42px" viewBox="0 0 128 42" version="1.1" xmlns="http://www.w3.org/2000/svg" xmlns:xlink="http://www.w3.org/1999/xlink">
    <!-- Generator: Sketch 51.3 (57544) - http://www.bohemiancoding.com/sketch -->
    <title>Group 14</title>
    <desc>Created with Sketch.</desc>
    <defs>
        <filter x="-0.5%" y="-12.5%" width="101.0%" height="125.0%" filterUnits="objectBoundingBox" id="filter-1">
            <feOffset dx="0" dy="0" in="SourceAlpha" result="shadowOffsetOuter1"></feOffset>
            <feGaussianBlur stdDeviation="2.5" in="shadowOffsetOuter1" result="shadowBlurOuter1"></feGaussianBlur>
            <feColorMatrix values="0 0 0 0 0   0 0 0 0 0   0 0 0 0 0  0 0 0 0.07 0" type="matrix" in="shadowBlurOuter1" result="shadowMatrixOuter1"></feColorMatrix>
            <feMerge>
                <feMergeNode in="shadowMatrixOuter1"></feMergeNode>
                <feMergeNode in="SourceGraphic"></feMergeNode>
            </feMerge>
        </filter>
    </defs>
    <g id="Normal-User-side" stroke="none" stroke-width="1" fill="none" fill-rule="evenodd">
        <g id="1020_My-Profile_My-Actions" transform="translate(-140.000000, -9.000000)">
            <g id="Navbar" filter="url(#filter-1)">
                <g id="Group-14" transform="translate(145.000000, 14.000000)">
                    <path d="M45.72,15.592 L48.546,15.592 L48.546,20.056 C47.2979938,21.448007 45.570011,22.144 43.362,22.144 C41.5139908,22.144 39.9630063,21.5320061 38.709,20.308 C37.4549937,19.0839939 36.828,17.5390093 36.828,15.673 C36.828,13.8069907 37.4669936,12.2500062 38.745,11.002 C40.0230064,9.75399376 41.564991,9.13 43.371,9.13 C45.177009,9.13 46.7459933,9.72399406 48.078,10.912 L46.62,13.018 C46.0559972,12.5259975 45.5370024,12.1870009 45.063,12.001 C44.5889976,11.8149991 44.0760028,11.722 43.524,11.722 C42.4559947,11.722 41.5560037,12.0849964 40.824,12.811 C40.0919963,13.5370036 39.726,14.4939941 39.726,15.682 C39.726,16.8700059 40.0769965,17.8209964 40.779,18.535 C41.4810035,19.2490036 42.3179951,19.606 43.29,19.606 C44.2620049,19.606 45.0719968,19.4200019 45.72,19.048 L45.72,15.592 Z M51.048,9.418 L53.856,9.418 L53.856,22 L51.048,22 L51.048,9.418 Z M61.596,17.428 L64.8,9.418 L67.842,9.418 L62.784,22 L60.408,22 L55.35,9.418 L58.392,9.418 L61.596,17.428 Z M78.408,9.418 L78.408,11.92 L72.144,11.92 L72.144,14.512 L77.778,14.512 L77.778,16.906 L72.144,16.906 L72.144,19.516 L78.606,19.516 L78.606,22 L69.336,22 L69.336,9.418 L78.408,9.418 Z M81.108,22 L81.108,9.418 L83.916,9.418 L83.916,19.498 L89.28,19.498 L89.28,22 L81.108,22 Z M91.332,9.418 L94.14,9.418 L94.14,22 L91.332,22 L91.332,9.418 Z M101.286,11.596 C100.817998,11.596 100.449001,11.7069989 100.179,11.929 C99.9089987,12.1510011 99.774,12.4449982 99.774,12.811 C99.774,13.1770018 99.9389984,13.4679989 100.269,13.684 C100.599002,13.9000011 101.360994,14.1549985 102.555,14.449 C103.749006,14.7430015 104.675997,15.1839971 105.336,15.772 C105.996003,16.3600029 106.326,17.2179944 106.326,18.346 C106.326,19.4740056 105.903004,20.3889965 105.057,21.091 C104.210996,21.7930035 103.098007,22.144 101.718,22.144 C99.72599,22.144 97.932008,21.4060074 96.336,19.93 L98.01,17.878 C99.3660068,19.0660059 100.619994,19.66 101.772,19.66 C102.288003,19.66 102.692999,19.5490011 102.987,19.327 C103.281001,19.1049989 103.428,18.8050019 103.428,18.427 C103.428,18.0489981 103.272002,17.7490011 102.96,17.527 C102.647998,17.3049989 102.030005,17.0800011 101.106,16.852 C99.6419927,16.5039983 98.5710034,16.0510028 97.893,15.493 C97.2149966,14.9349972 96.876,14.059006 96.876,12.865 C96.876,11.670994 97.3049957,10.7500032 98.163,10.102 C99.0210043,9.45399676 100.091994,9.13 101.376,9.13 C102.216004,9.13 103.055996,9.27399856 103.896,9.562 C104.736004,9.85000144 105.467997,10.2579974 106.092,10.786 L104.67,12.838 C103.577995,12.0099959 102.450006,11.596 101.286,11.596 Z M114.048,11.848 L114.048,22 L111.24,22 L111.24,11.848 L107.676,11.848 L107.676,9.418 L117.612,9.418 L117.612,11.848 L114.048,11.848 Z" id="GIVELIST" fill="#F0F4F8"></path>
                    <g id="LionFinalLogo" fill="#FFFFFF" fill-rule="nonzero">
                        <g id="__x0023_Layer_x0020_1">
                            <path d="M28.2226496,12.0468867 C27.9191802,9.94627412 27.1352177,8.02282162 26.0224968,6.32714639 C25.6937383,5.82097468 25.3144016,5.34011155 24.9097758,4.88455701 C24.4798609,4.40369389 24.0246569,3.92283076 23.5441637,3.51789339 C22.6337557,2.70801865 21.5969021,2.02468684 20.5094702,1.46789796 C20.3577356,1.39197221 20.2060009,1.31604645 20.0542662,1.26542928 C18.2587392,0.45555454 16.2861885,0 14.1871921,0 C12.0881958,0 10.0903559,0.45555454 8.32011802,1.26542928 C8.16838334,1.34135503 8.01664867,1.41728079 7.86491399,1.46789796 C6.75219304,2.02468684 5.74062854,2.70801865 4.83022049,3.51789339 C4.34972735,3.94813935 3.89452333,4.40369389 3.46460841,4.88455701 C3.05998261,5.34011155 2.70593504,5.82097468 2.35188746,6.32714639 C1.23916651,8.02282162 0.480493138,9.94627412 0.151734675,12.0468867 C0.050578225,12.7302185 0,13.4388589 0,14.1474993 C0,14.8561397 0.050578225,15.5394715 0.126445563,16.1974947 C0.278180238,17.3110725 0.556360475,18.3740331 0.91040805,19.3863765 C1.36561208,20.6264972 1.94726166,21.7653836 2.6300677,22.8030356 C3.11056084,23.5369846 3.61634309,24.2203164 4.17270356,24.853031 C4.52675114,25.2579684 4.90608783,25.6629057 5.28542451,26.0425345 L5.31071363,26.0425345 C5.41187008,26.1690775 5.51302653,26.2703118 5.63947209,26.3968547 C5.71533943,26.4727805 5.79120676,26.5487062 5.8670741,26.624632 C6.60045837,27.3079638 7.35913174,27.9153699 8.092516,28.4721587 C9.00292405,29.130182 9.86275388,29.7122794 10.6720055,30.1931426 C12.6951345,31.4079547 14.1871921,31.9900521 14.1871921,31.9900521 C14.1871921,31.9900521 15.6792498,31.4079547 17.7023788,30.1931426 C18.4863412,29.7122794 19.3714602,29.1554905 20.2818682,28.4721587 C21.0152525,27.9153699 21.7739259,27.3079638 22.5073101,26.624632 C22.5831775,26.5487062 22.6590448,26.4727805 22.7349121,26.3968547 C22.8360686,26.2703118 22.9625142,26.1690775 23.0636706,26.0425345 L23.0889597,26.0425345 C23.4682964,25.6629057 23.822344,25.283277 24.2016807,24.853031 C24.7580411,24.2203164 25.2638234,23.5369846 25.7443165,22.8030356 C26.4271226,21.7653836 27.0340613,20.6264972 27.4639762,19.3863765 C27.8180238,18.3993417 28.096204,17.3363811 28.2479387,16.1974947 C28.3490951,15.5394715 28.3743842,14.8561397 28.3743842,14.1474993 C28.3743842,13.4388589 28.323806,12.7302185 28.2226496,12.0468867 Z M17.1207292,24.1443906 L17.1207292,24.1443906 C16.3367667,24.4734022 15.4769369,24.6758709 14.5918179,24.7011795 L14.2124812,24.7011795 L13.8078554,24.7011795 C12.9227365,24.6505623 12.0629067,24.4480936 11.2789442,24.1443906 C11.1524986,23.4863674 10.9501857,22.8789613 10.6972946,22.2715553 C11.5571244,21.9678523 12.4422434,21.7653836 13.4032296,21.6894578 C13.6561208,21.6641492 13.934301,21.6641492 14.2124812,21.6641492 C14.4906615,21.6641492 14.7435526,21.6641492 15.0217328,21.6894578 C15.95743,21.7653836 16.867838,21.9678523 17.7276679,22.2715553 C17.4747767,22.8536527 17.2724638,23.4863674 17.1460183,24.1443906 L17.1207292,24.1443906 Z M21.799215,14.2993508 L21.799215,14.2993508 C21.6727694,14.4005852 21.5210347,14.5271281 21.3945892,14.653671 C20.6359158,15.3370028 19.9783989,16.1468776 19.4473275,17.0326781 L19.4473275,17.0326781 L19.4473275,17.0326781 C18.9415453,16.6024321 18.4863412,16.121569 18.0817154,15.6153973 C17.8794025,15.3623114 17.6770896,15.083917 17.5000659,14.8055225 C17.5759332,15.1851513 17.6770896,15.5394715 17.7782461,15.8937917 C17.9046917,16.2987291 18.0564263,16.6783579 18.208161,17.0326781 C18.3851848,17.4376154 18.6127868,17.8425528 18.8403888,18.2221816 C19.0679908,18.6018104 19.3461711,18.9561306 19.6243513,19.3104508 C19.4979057,19.4369937 19.3714602,19.5888452 19.2703037,19.7153881 C18.8656779,20.1962513 18.4863412,20.7277316 18.1828719,21.2845204 C18.1322937,21.3351376 18.1070046,21.4110634 18.0817154,21.4616805 C18.0311372,21.5629149 17.980559,21.6641492 17.9299808,21.7653836 C17.8288243,21.7653836 17.7276679,21.740075 17.6265114,21.7147664 C17.1713074,21.6388406 16.7413925,21.5122977 16.3367667,21.3351376 C15.4769369,20.9555088 14.7435526,20.3227942 14.2124812,19.538228 C14.2124812,19.538228 14.2124812,19.538228 14.2124812,19.5129195 C14.1871921,19.538228 14.161903,19.5888452 14.1366139,19.6141538 C13.6055425,20.3481028 12.8974474,20.9302002 12.0881958,21.309829 C11.68357,21.4869891 11.2536551,21.6388406 10.798451,21.6894578 C10.6972946,21.7147664 10.5961381,21.7147664 10.4949817,21.740075 C10.4444035,21.6388406 10.3938252,21.5376063 10.343247,21.436372 C10.3179579,21.3857548 10.2926688,21.309829 10.2420906,21.2592119 C9.93862122,20.702423 9.55928453,20.1709427 9.15465873,19.6900796 C9.05350228,19.5635366 8.92705672,19.4116851 8.80061115,19.2851422 C9.07879139,18.930822 9.35697163,18.5765018 9.58457364,18.196873 C9.81217565,17.8172442 10.0397777,17.4376154 10.2168015,17.0073695 C10.3938252,16.6277407 10.5455599,16.2481119 10.6467164,15.8684831 C10.7478728,15.5141629 10.8490293,15.1345342 10.9248966,14.780214 C10.7478728,15.0586084 10.570849,15.3370028 10.343247,15.5900887 C9.93862122,16.0962604 9.48341719,16.5771235 8.97763494,17.0073695 L8.97763494,17.0073695 L8.97763494,17.0073695 C8.44656358,16.121569 7.78904665,15.3116943 7.03037328,14.6283624 C6.90392772,14.5018195 6.77748215,14.4005852 6.62574748,14.2740422 L6.62574748,14.0209564 C6.62574748,13.616019 6.65103659,13.2110817 6.72690393,12.8061443 C6.8786386,11.8950352 7.18210795,11.0345433 7.61202287,10.2752857 C7.94078133,9.71849685 8.32011802,9.18701655 8.77532204,8.73146201 C9.05350228,8.42775899 9.35697163,8.17467313 9.68573009,7.92158728 C9.7110192,7.89627869 9.76159743,7.8709701 9.78688654,7.84566152 C10.4949817,7.33948981 11.2789442,6.95986103 12.1134849,6.70677517 C12.6951345,6.55492366 13.2767841,6.45368931 13.9090119,6.42838073 L14.1871921,6.42838073 L14.4653724,6.42838073 C15.0976002,6.45368931 15.6792498,6.55492366 16.2608993,6.70677517 C17.1207292,6.95986103 17.9046917,7.33948981 18.5874977,7.84566152 C18.6127868,7.8709701 18.663365,7.89627869 18.6886541,7.92158728 C19.0174126,8.14936455 19.320882,8.42775899 19.5990622,8.73146201 C20.0542662,9.18701655 20.4336029,9.71849685 20.7623614,10.2752857 C21.1922763,11.0345433 21.4957456,11.8950352 21.6474803,12.8061443 C21.6980585,13.2110817 21.7486368,13.616019 21.7486368,14.0209564 L21.7486368,14.2740422 L21.799215,14.2993508 Z M18.435763,11.6419494 L18.435763,11.6419494 C18.8403888,11.6419494 19.2197255,11.6925665 19.5990622,11.7684923 L19.5990622,11.7684923 C18.9415453,12.4012069 18.1828719,12.9073786 17.3230421,13.2870074 C17.1460183,13.3629332 16.9689945,13.4388589 16.7919707,13.4894761 C16.6908143,13.5147847 16.6149469,13.5654019 16.5137905,13.5907104 C16.2356102,14.5018195 16.1091647,15.4382372 16.1091647,16.425272 L16.1091647,16.855518 C15.9827191,16.2228033 15.9321409,15.5900887 15.9321409,14.9067569 C15.9321409,14.5018195 15.95743,14.0968821 16.0080082,13.7172534 C16.0585864,13.1857731 16.185032,12.6542928 16.3114776,12.1481211 C16.3114776,12.1228125 16.3114776,12.0975039 16.3367667,12.0721953 C16.6149469,11.9456524 16.9184163,11.844418 17.2471747,11.7684923 C17.297753,11.7431837 17.3230421,11.7431837 17.3736203,11.7431837 C17.7023788,11.6672579 18.0564263,11.6419494 18.435763,11.6419494 Z M14.2630595,19.4876109 L14.2630595,19.4876109 C14.2377703,19.5129195 14.2377703,19.538228 14.2124812,19.5635366 C13.706699,18.7789705 13.0491821,18.1462558 12.2399305,17.6907013 C12.2652196,17.4376154 12.2905087,17.159221 12.3157978,16.9061351 C12.6698454,17.0326781 13.0238929,17.1339124 13.4032296,17.1845296 C13.6814099,17.2351468 13.9595901,17.2604553 14.2377703,17.2604553 C14.5159506,17.2604553 14.7941308,17.2351468 15.0723111,17.1845296 C15.4516477,17.1339124 15.8056953,17.0326781 16.1597429,16.9061351 C16.1597429,17.1845296 16.185032,17.4376154 16.2356102,17.6907013 C15.4769369,18.1209473 14.8194199,18.7030447 14.3389268,19.4369937 C14.3389268,19.4623023 14.3136377,19.4623023 14.3136377,19.4876109 L14.2630595,19.4876109 Z M12.4169542,13.7172534 L12.4169542,13.7172534 C12.4675325,14.1221907 12.4928216,14.5271281 12.4928216,14.9320655 C12.4928216,15.5900887 12.4169542,16.2481119 12.3157978,16.8808266 L12.3157978,16.4505806 C12.3157978,15.4635458 12.1640631,14.5018195 11.911172,13.616019 C11.8100155,13.5907104 11.7088591,13.5654019 11.6329918,13.5147847 C11.455968,13.4641675 11.2789442,13.3882418 11.1019204,13.312316 C10.2673797,12.9579958 9.48341719,12.4265155 8.82590027,11.7938009 L8.82590027,11.7938009 C9.20523695,11.6925665 9.58457364,11.6672579 9.98919944,11.6672579 C10.343247,11.6672579 10.6972946,11.7178751 11.0513422,11.7684923 C11.1019204,11.7684923 11.1524986,11.7938009 11.1777877,11.7938009 C11.4812571,11.8697266 11.7847264,11.970961 12.0881958,12.0975039 C12.0881958,12.1228125 12.1134849,12.1481211 12.1134849,12.1734296 C12.2652196,12.6796014 12.366376,13.2110817 12.4169542,13.742562 L12.4169542,13.7172534 Z" id="Shape"></path>
                        </g>
                    </g>
                </g>
            </g>
        </g>
    </g>
</svg>